<svg xmlns="http://www.w3.org/2000/svg" width="880" height="260" viewBox="0 0 880 260" role="img" aria-label="Hello, I'm Lucas 👋 — stars fading in and out">
<defs><pattern id="p0" width="440" height="520" patternUnits="userSpaceOnUse"><g fill="#000" opacity="0.10"><animate attributeName="opacity" values="0.10;0.41;0.10" dur="3.0s" begin="-0.5s" repeatCount="indefinite"/><circle cx="111" cy="130" r="1.9"/><circle cx="262" cy="127" r="2.0"/><circle cx="211" cy="58" r="0.9"/><circle cx="160" cy="236" r="1.1"/><circle cx="360" cy="175" r="1.7"/><circle cx="124" cy="353" r="0.7"/><circle cx="395" cy="500" r="1.7"/><circle cx="280" cy="116" r="1.1"/><circle cx="425" cy="198" r="1.4"/></g><g fill="#000" opacity="0.20"><animate attributeName="opacity" values="0.20;0.43;0.20" dur="5.5s" begin="-4.7s" repeatCount="indefinite"/><circle cx="229" cy="457" r="2.0"/><circle cx="28" cy="205" r="1.0"/><circle cx="14" cy="296" r="0.8"/><circle cx="148" cy="258" r="0.7"/><circle cx="115" cy="194" r="0.9"/><circle cx="181" cy="67" r="1.3"/><circle cx="336" cy="512" r="0.9"/><circle cx="244" cy="19" r="1.6"/><circle cx="431" cy="118" r="2.1"/></g><g fill="#000" opacity="0.12"><animate attributeName="opacity" values="0.12;0.50;0.12" dur="4.3s" begin="-0.2s" repeatCount="indefinite"/><circle cx="171" cy="230" r="1.2"/><circle cx="260" cy="142" r="0.9"/><circle cx="265" cy="63" r="1.3"/><circle cx="136" cy="375" r="1.4"/><circle cx="232" cy="262" r="1.3"/><circle cx="32" cy="94" r="0.8"/><circle cx="223" cy="112" r="1.8"/><circle cx="327" cy="252" r="2.1"/></g><g fill="#000" opacity="0.06"><animate attributeName="opacity" values="0.06;0.68;0.06" dur="2.4s" begin="-0.3s" repeatCount="indefinite"/><circle cx="8" cy="89" r="1.3"/><circle cx="431" cy="10" r="1.9"/><circle cx="195" cy="486" r="1.5"/><circle cx="400" cy="500" r="1.0"/><circle cx="79" cy="465" r="1.5"/><circle cx="129" cy="216" r="0.9"/><circle cx="350" cy="417" r="1.7"/><circle cx="163" cy="290" r="1.1"/><circle cx="197" cy="443" r="0.7"/></g><g fill="#000" opacity="0.18"><animate attributeName="opacity" values="0.18;0.68;0.18" dur="3.9s" begin="-2.8s" repeatCount="indefinite"/><circle cx="106" cy="380" r="0.8"/><circle cx="286" cy="282" r="1.0"/><circle cx="380" cy="7" r="1.6"/><circle cx="273" cy="90" r="1.0"/><circle cx="211" cy="106" r="1.9"/><circle cx="341" cy="186" r="1.0"/><circle cx="124" cy="435" r="2.0"/><circle cx="196" cy="462" r="1.3"/></g><g fill="#000" opacity="0.17"><animate attributeName="opacity" values="0.17;0.67;0.17" dur="2.0s" begin="-0.3s" repeatCount="indefinite"/><circle cx="381" cy="86" r="1.1"/><circle cx="181" cy="289" r="1.2"/></g></pattern><pattern id="p1" width="440" height="520" patternUnits="userSpaceOnUse"><g fill="#000" opacity="0.14"><animate attributeName="opacity" values="0.14;0.67;0.14" dur="2.7s" begin="-2.2s" repeatCount="indefinite"/><circle cx="70" cy="64" r="1.1"/><circle cx="55" cy="260" r="1.0"/><circle cx="285" cy="316" r="1.2"/></g><g fill="#000" opacity="0.17"><animate attributeName="opacity" values="0.17;0.69;0.17" dur="3.1s" begin="-0.1s" repeatCount="indefinite"/><circle cx="8" cy="459" r="1.4"/><circle cx="268" cy="380" r="1.1"/><circle cx="332" cy="362" r="1.5"/><circle cx="314" cy="386" r="1.7"/></g><g fill="#000" opacity="0.05"><animate attributeName="opacity" values="0.05;0.51;0.05" dur="3.9s" begin="-2.7s" repeatCount="indefinite"/><circle cx="331" cy="207" r="1.1"/><circle cx="97" cy="180" r="1.5"/><circle cx="306" cy="227" r="0.8"/></g><g fill="#000" opacity="0.18"><animate attributeName="opacity" values="0.18;0.58;0.18" dur="4.0s" begin="-2.3s" repeatCount="indefinite"/><circle cx="220" cy="186" r="1.9"/><circle cx="8" cy="170" r="1.9"/><circle cx="82" cy="484" r="0.7"/><circle cx="343" cy="7" r="2.0"/></g><g fill="#000" opacity="0.19"><animate attributeName="opacity" values="0.19;0.51;0.19" dur="5.0s" begin="-4.7s" repeatCount="indefinite"/><circle cx="97" cy="377" r="2.0"/><circle cx="255" cy="437" r="1.5"/><circle cx="104" cy="300" r="1.1"/></g><g fill="#000" opacity="0.06"><animate attributeName="opacity" values="0.06;0.69;0.06" dur="5.3s" begin="-0.7s" repeatCount="indefinite"/><circle cx="420" cy="14" r="0.9"/><circle cx="44" cy="308" r="1.4"/><circle cx="149" cy="328" r="1.1"/></g></pattern><pattern id="p2" width="440" height="520" patternUnits="userSpaceOnUse"><g fill="#000" opacity="0.18"><animate attributeName="opacity" values="0.18;0.53;0.18" dur="2.1s" begin="-2.0s" repeatCount="indefinite"/><circle cx="15" cy="239" r="0.9"/><circle cx="326" cy="291" r="1.6"/></g><g fill="#000" opacity="0.07"><animate attributeName="opacity" values="0.07;0.59;0.07" dur="5.3s" begin="-4.3s" repeatCount="indefinite"/><circle cx="420" cy="493" r="1.9"/><circle cx="267" cy="321" r="1.4"/></g><g fill="#000" opacity="0.06"><animate attributeName="opacity" values="0.06;0.64;0.06" dur="4.6s" begin="-0.8s" repeatCount="indefinite"/><circle cx="203" cy="321" r="1.5"/><circle cx="163" cy="20" r="2.1"/><circle cx="191" cy="154" r="1.6"/></g><g fill="#000" opacity="0.10"><animate attributeName="opacity" values="0.10;0.52;0.10" dur="5.4s" begin="-4.0s" repeatCount="indefinite"/><circle cx="348" cy="404" r="1.1"/></g></pattern></defs>
<rect x="0" y="-520" width="880" height="1560" fill="url(#p0)"><animateTransform attributeName="transform" type="translate" from="0 0" to="0 -520" dur="50s" repeatCount="indefinite"/></rect><rect x="0" y="-520" width="880" height="1560" fill="url(#p1)"><animateTransform attributeName="transform" type="translate" from="0 0" to="0 -520" dur="100s" repeatCount="indefinite"/></rect><rect x="0" y="-520" width="880" height="1560" fill="url(#p2)"><animateTransform attributeName="transform" type="translate" from="0 0" to="0 -520" dur="150s" repeatCount="indefinite"/></rect>
<text x="440.0" y="130.0" text-anchor="middle" dominant-baseline="middle" font-family="-apple-system, BlinkMacSystemFont, 'Segoe UI', Helvetica, Arial, sans-serif" font-size="44" font-weight="700" fill="#222">Hello, I'm Lucas 👋</text>
</svg>
